<svg xmlns="http://www.w3.org/2000/svg" width="15" height="16" viewBox="0 0 15 16" fill="none">
  <path d="M5.9375 10.5C4.80208 10.5 3.84125 10.1067 3.055 9.32C2.26875 8.53333 1.87542 7.5725 1.875 6.4375C1.87458 5.3025 2.26792 4.34167 3.055 3.555C3.84208 2.76833 4.80292 2.375 5.9375 2.375C7.07208 2.375 8.03313 2.76833 8.82063 3.555C9.60813 4.34167 10.0013 5.3025 10 6.4375C10 6.89583 9.92708 7.32812 9.78125 7.73438C9.63542 8.14062 9.4375 8.5 9.1875 8.8125L12.6875 12.3125C12.8021 12.4271 12.8594 12.5729 12.8594 12.75C12.8594 12.9271 12.8021 13.0729 12.6875 13.1875C12.5729 13.3021 12.4271 13.3594 12.25 13.3594C12.0729 13.3594 11.9271 13.3021 11.8125 13.1875L8.3125 9.6875C8 9.9375 7.64063 10.1354 7.23438 10.2812C6.82813 10.4271 6.39583 10.5 5.9375 10.5ZM5.9375 9.25C6.71875 9.25 7.38292 8.97667 7.93 8.43C8.47708 7.88333 8.75042 7.21917 8.75 6.4375C8.74958 5.65583 8.47625 4.99188 7.93 4.44563C7.38375 3.89938 6.71958 3.62583 5.9375 3.625C5.15542 3.62417 4.49146 3.89771 3.94563 4.44563C3.39979 4.99354 3.12625 5.6575 3.125 6.4375C3.12375 7.2175 3.39729 7.88167 3.94563 8.43C4.49396 8.97833 5.15792 9.25167 5.9375 9.25Z" fill="#212529"/>
</svg>