<svg width="997" height="221" viewBox="0 0 997 221" fill="none" xmlns="http://www.w3.org/2000/svg">
<rect x="1" y="1" width="995" height="219" stroke="#6A39C0" stroke-width="2"/>
<rect width="98" height="71" transform="translate(2 2)" fill="#6A39C0"/>
<path d="M71 17.5H31C28.225 17.5 26.025 19.725 26.025 22.5L26 52.5C26 55.275 28.225 57.5 31 57.5H71C73.775 57.5 76 55.275 76 52.5V22.5C76 19.725 73.775 17.5 71 17.5ZM42.25 45H39.25L32.875 36.25V45H29.75V30H32.875L39.125 38.75V30H42.25V45ZM54.75 33.15H48.5V35.95H54.75V39.1H48.5V41.875H54.75V45H44.75V30H54.75V33.15ZM72.25 42.5C72.25 43.875 71.125 45 69.75 45H59.75C58.375 45 57.25 43.875 57.25 42.5V30H60.375V41.275H63.2V32.475H66.325V41.25H69.125V30H72.25V42.5Z" fill="white"/>
<path d="M127.637 30.1211V32.3154H110.554V30.1211H117.731V26.7578H111.969V24.707H114.471V19.375H111.887V17.2832H126.201V19.375H123.576V24.707H126.119V26.7578H120.336V30.1211H127.637ZM117.096 24.707H120.992V19.375H117.096V24.707ZM143.5 24.0713V26.1426H138.086V30.1211H145.366V32.2539H128.283V30.1211H135.481V26.1426H130.293V17.0371H143.356V19.1289H132.918V24.0713H143.5ZM152.103 16.5039C154.954 16.4834 157.025 18.1035 157.025 20.4619C157.025 22.7998 154.954 24.4404 152.103 24.4199C149.253 24.4404 147.181 22.7998 147.202 20.4619C147.181 18.1035 149.253 16.4834 152.103 16.5039ZM152.103 18.5957C150.709 18.5957 149.724 19.2725 149.724 20.4619C149.724 21.6309 150.709 22.3076 152.103 22.2871C153.539 22.3076 154.544 21.6309 154.544 20.4619C154.544 19.2725 153.539 18.5957 152.103 18.5957ZM161.742 15.7451V34.3867H159.158V15.7451H161.742ZM146.054 25.5684C149.355 25.5684 154.052 25.4863 158.03 24.8916L158.194 26.8193C156.656 27.127 155.077 27.3218 153.518 27.4346V33.833H150.914V27.5986C149.273 27.6704 147.725 27.6807 146.382 27.7012L146.054 25.5684ZM173.934 17.5088C173.914 23.251 172.335 28.1318 165.28 31.5977L163.906 29.5879C166.992 28.0703 168.92 26.3271 170.038 24.2148L164.378 24.7275L164.05 22.5127L170.879 22.1025C171.104 21.3232 171.248 20.4824 171.33 19.6006H165.013V17.5088H173.934ZM179.43 15.7246V34.3867H176.785V15.7246H179.43ZM196.196 15.7246V22.8818H198.841V25.0352H196.196V34.3457H193.571V15.7246H196.196ZM191.213 17.6318C191.192 23.21 189.018 28.0498 182.743 31.126L181.266 29.1162C185.686 26.9014 188.054 23.9277 188.547 19.7646H182.333V17.6318H191.213ZM219.391 15.7246V34.4277H216.766V24.9941H213.403V22.9023H216.766V15.7246H219.391ZM210.614 21.5693C210.614 24.2764 212.09 27.291 215.146 28.6035L213.751 30.6133C211.629 29.7314 210.152 27.9473 209.342 25.8145C208.522 28.0806 207.056 29.9878 204.913 30.9004L203.539 28.8906C206.533 27.5576 207.989 24.3789 208.009 21.5693V20.8516H204.133V18.7598H208.009V16.1348H210.634V18.7598H214.408V20.8516H210.614V21.5693ZM229.861 16.0732C234.003 16.0732 236.628 17.4473 236.649 19.7236C236.628 21.9795 234.003 23.3535 229.861 23.333C225.739 23.3535 223.052 21.9795 223.052 19.7236C223.052 17.4473 225.739 16.0732 229.861 16.0732ZM229.861 18.1035C227.256 18.1035 225.759 18.6572 225.78 19.7236C225.759 20.7695 227.256 21.3027 229.861 21.3027C232.445 21.3027 233.942 20.7695 233.942 19.7236C233.942 18.6572 232.445 18.1035 229.861 18.1035ZM236.341 27.8242V34.1816H223.319V27.8242H236.341ZM225.903 29.8955V32.0898H233.778V29.8955H225.903ZM238.372 24.4199V26.5117H221.35V24.4199H238.372ZM254.706 15.7246V34.4277H252.061V15.7246H254.706ZM244.576 17.0371C247.385 17.0371 249.477 19.6211 249.477 23.6816C249.477 27.7832 247.385 30.3467 244.576 30.3467C241.704 30.3467 239.613 27.7832 239.633 23.6816C239.613 19.6211 241.704 17.0371 244.576 17.0371ZM244.576 19.3955C243.119 19.3955 242.156 20.9131 242.156 23.6816C242.156 26.4707 243.119 27.9678 244.576 27.9678C245.991 27.9678 246.954 26.4707 246.954 23.6816C246.954 20.9131 245.991 19.3955 244.576 19.3955ZM272.436 15.7451V29.3623H269.811V15.7451H272.436ZM272.928 31.9668V34.0586H259.926V28.0498H262.572V31.9668H272.928ZM263.966 18.5752C263.946 21.0361 265.258 23.4561 268.334 24.4404L267.001 26.4912C264.899 25.7939 263.443 24.3994 262.613 22.6152C261.782 24.5327 260.285 26.0708 258.101 26.8193L256.747 24.748C259.885 23.7021 261.239 21.0977 261.239 18.5752V16.7705H263.966V18.5752ZM289.263 15.7246V22.8818H291.908V25.0352H289.263V34.3457H286.638V15.7246H289.263ZM284.279 17.6318C284.259 23.21 282.085 28.0498 275.81 31.126L274.333 29.1162C278.753 26.9014 281.121 23.9277 281.613 19.7646H275.4V17.6318H284.279ZM309.351 30.0596V32.2129H292.268V30.0596H296.082V25.4863C294.636 24.625 293.765 23.3022 293.765 21.6514C293.765 18.6367 296.718 16.627 300.778 16.627C304.818 16.627 307.792 18.6367 307.813 21.6514C307.802 23.2612 306.951 24.5737 305.557 25.4453V30.0596H309.351ZM300.778 18.6982C298.112 18.6982 296.349 19.7646 296.349 21.6514C296.349 23.4766 298.112 24.6045 300.778 24.6045C303.424 24.6045 305.208 23.4766 305.229 21.6514C305.208 19.7646 303.424 18.6982 300.778 18.6982ZM298.666 30.0596H302.911V26.4297C302.245 26.563 301.527 26.6348 300.778 26.6348C300.03 26.6348 299.322 26.5732 298.666 26.4297V30.0596ZM313.258 27.8242C313.278 25.2812 313.955 24.4814 315.186 23.7227C316.067 23.1484 316.744 22.5127 316.744 21.5693C316.744 20.5439 315.944 19.8672 314.96 19.8672C313.996 19.8672 313.114 20.5029 313.073 21.7129H310.161C310.223 18.8213 312.356 17.4473 314.981 17.4473C317.831 17.4473 319.861 18.9443 319.861 21.4668C319.861 23.1484 319 24.2354 317.647 25.0352C316.498 25.7324 315.985 26.3887 315.965 27.8242V28.0498H313.258V27.8242ZM314.673 32.6846C313.709 32.6846 312.93 31.9053 312.95 30.9619C312.93 30.0186 313.709 29.2598 314.673 29.2598C315.575 29.2598 316.375 30.0186 316.375 30.9619C316.375 31.9053 315.575 32.6846 314.673 32.6846Z" fill="#212529"/>
<path d="M117.119 47.8066V50.3115H120.166V46.6787H121.323V56.1855H120.166V51.249H117.119V53.8418H111.143V47.8066H117.119ZM112.285 48.7588V52.9189H115.991V48.7588H112.285ZM121.689 58.4414V59.4082H112.959V55.3066H114.116V58.4414H121.689ZM133.987 46.6641V59.7158H132.83V52.3623H129.973V51.4102H132.83V46.6641H133.987ZM127.703 50.5312C127.703 52.6992 129.256 55.0576 131.16 55.9219L130.471 56.8447C128.985 56.1196 127.732 54.5449 127.146 52.7285C126.546 54.6548 125.264 56.3247 123.777 57.1084L123.074 56.2148C124.964 55.292 126.531 52.8457 126.546 50.5312V48.9639H123.572V48.0117H130.691V48.9639H127.703V50.5312ZM238.653 48.1143V48.7881C238.638 49.8135 238.638 51.542 238.272 53.959L237.115 53.8564C237.467 51.6738 237.496 50.0918 237.496 49.0518H232.032V48.1143H238.653ZM235.24 51.835V55.79C236.683 55.7388 238.162 55.6436 239.517 55.4824L239.576 56.3467C236.837 56.7715 233.775 56.8301 231.446 56.8154L231.3 55.8633C232.157 55.856 233.109 55.8486 234.112 55.8193V51.835H235.24ZM241.48 46.6641V52.1133H243.59V53.1094H241.48V59.6865H240.338V46.6641H241.48ZM374.397 46.8984C377.297 46.8984 378.996 47.6895 378.996 49.1396C378.996 50.6191 377.297 51.4102 374.397 51.4248C371.496 51.4102 369.782 50.6191 369.782 49.1396C369.782 47.6895 371.496 46.8984 374.397 46.8984ZM374.397 47.7627C372.229 47.7627 370.969 48.29 370.984 49.1396C370.969 50.0479 372.229 50.5459 374.397 50.5459C376.55 50.5459 377.824 50.0479 377.824 49.1396C377.824 48.29 376.55 47.7627 374.397 47.7627ZM380.329 52.3037V53.2412H368.464V52.3037H380.329ZM378.806 54.3691V57.2842H371.071V58.6318H379.201V59.54H369.929V56.4346H377.678V55.248H369.9V54.3691H378.806ZM394.759 46.6787V50.6191H396.707V51.5859H394.759V55.4092H393.601V46.6787H394.759ZM384.534 54.0762C385.574 54.0762 386.79 54.0762 388.064 54.0322V53.0801C386.548 52.9482 385.574 52.2378 385.574 51.1611C385.574 49.9746 386.79 49.2422 388.621 49.2422C390.467 49.2422 391.668 49.9746 391.682 51.1611C391.668 52.2305 390.716 52.9409 389.207 53.0801V53.9883C390.423 53.9297 391.653 53.8345 392.796 53.666L392.898 54.501C390.071 54.999 386.951 55.0137 384.666 55.0137L384.534 54.0762ZM394.759 56.0537V59.6865H393.601V56.9766H386.131V56.0537H394.759ZM392.4 47.8652V48.7441H384.856V47.8652H388.064V46.5615H389.207V47.8652H392.4ZM388.621 50.0625C387.42 50.0479 386.673 50.4727 386.673 51.1611C386.673 51.835 387.42 52.3037 388.621 52.2891C389.822 52.3037 390.584 51.835 390.584 51.1611C390.584 50.4727 389.822 50.0479 388.621 50.0625ZM408.008 46.6787V56.2002H406.866V46.6787H408.008ZM408.419 58.4414V59.4082H399.6V55.2334H400.743V58.4414H408.419ZM400.977 47.5869C402.925 47.5869 404.39 48.9053 404.39 50.7803C404.39 52.6846 402.925 53.9883 400.977 53.9883C399.029 53.9883 397.564 52.6846 397.564 50.7803C397.564 48.9053 399.029 47.5869 400.977 47.5869ZM400.977 48.5977C399.659 48.5977 398.677 49.5059 398.692 50.7803C398.677 52.084 399.659 52.9775 400.977 52.9775C402.266 52.9775 403.262 52.084 403.262 50.7803C403.262 49.5059 402.266 48.5977 400.977 48.5977ZM416.424 48.9199V49.8574H409.891V48.9199H412.601V47.0596H413.744V48.9199H416.424ZM413.158 50.7363C414.798 50.7363 415.97 51.9668 415.985 53.6953C415.97 55.4385 414.798 56.6836 413.158 56.6836C411.532 56.6836 410.36 55.4385 410.36 53.6953C410.36 51.9668 411.532 50.7363 413.158 50.7363ZM413.158 51.7031C412.132 51.7178 411.385 52.5527 411.385 53.6953C411.385 54.8525 412.132 55.6875 413.158 55.6729C414.198 55.6875 414.959 54.8525 414.959 53.6953C414.959 52.5527 414.198 51.7178 413.158 51.7031ZM421.009 46.6641V59.6865H419.911V53.1094H418.182V59.042H417.098V46.9863H418.182V52.1572H419.911V46.6641H421.009ZM434.508 57.0645V58.0166H422.584V57.0645H427.945V54.252H423.99V47.5869H425.148V49.9453H431.915V47.5869H433.043V54.252H429.073V57.0645H434.508ZM425.148 53.3145H431.915V50.8828H425.148V53.3145ZM439.115 50.3701C439.115 52.4355 440.126 54.6768 441.854 55.7021L441.195 56.5957C439.943 55.834 439.042 54.4424 438.588 52.8604C438.104 54.5889 437.138 56.0757 435.834 56.874L435.102 56.0098C436.903 54.9551 438.002 52.6406 438.002 50.4141V47.8945H439.115V50.3701ZM446.41 46.6641V59.6865H445.297V46.6641H446.41ZM443.715 46.9424V59.0273H442.631V52.3184H440.419V51.3369H442.631V46.9424H443.715ZM459.836 57.0498V58.0166H447.912V57.0498H450.871V53.5342C449.758 52.9556 449.084 52.0181 449.084 50.8389C449.084 48.8174 451.061 47.499 453.845 47.4844C456.628 47.499 458.605 48.8174 458.605 50.8389C458.605 51.9961 457.953 52.9263 456.877 53.5049V57.0498H459.836ZM453.845 48.4365C451.706 48.4219 450.197 49.3887 450.197 50.8389C450.197 52.2891 451.706 53.2705 453.845 53.2705C455.969 53.2705 457.492 52.2891 457.492 50.8389C457.492 49.3887 455.969 48.4219 453.845 48.4365ZM451.999 57.0498H455.72V53.9443C455.156 54.0981 454.526 54.1787 453.845 54.1787C453.178 54.1787 452.555 54.1055 451.999 53.959V57.0498ZM461.953 58.5879C461.44 58.5879 461.001 58.1631 461.015 57.6357C461.001 57.123 461.44 56.6982 461.953 56.6982C462.465 56.6982 462.89 57.123 462.89 57.6357C462.89 58.1631 462.465 58.5879 461.953 58.5879Z" fill="#212529"/>
<path d="M151.244 57.0938V58.0752H139.32V57.0938H144.666V54.0908H140.404V53.168H142.44V48.8906H140.374V47.9385H150.101V48.8906H148.036V53.168H150.072V54.0908H145.794V57.0938H151.244ZM143.582 53.168H146.908V48.8906H143.582V53.168ZM162.501 52.7725V53.71H158.473V57.0791H163.907V58.0459H151.984V57.0791H157.345V53.71H153.507V47.7334H162.369V48.6709H154.664V52.7725H162.501ZM168.939 47.3086C170.888 47.2939 172.279 48.3633 172.279 49.96C172.279 51.542 170.888 52.6406 168.939 52.626C166.991 52.6406 165.6 51.542 165.6 49.96C165.6 48.3633 166.991 47.2939 168.939 47.3086ZM168.939 48.2461C167.636 48.2314 166.713 48.9492 166.728 49.96C166.713 50.9854 167.636 51.6885 168.939 51.6738C170.258 51.6885 171.181 50.9854 171.181 49.96C171.181 48.9492 170.258 48.2314 168.939 48.2461ZM175.385 46.6787V59.7012H174.257V46.6787H175.385ZM164.618 53.7393C167.064 53.7393 170.404 53.6953 173.305 53.2705L173.378 54.1348C172.133 54.3618 170.836 54.501 169.584 54.5742V59.291H168.441V54.6475C167.116 54.7061 165.863 54.7134 164.779 54.7207L164.618 53.7393ZM184.299 48.0264C184.284 51.791 182.922 55.2627 178.22 57.5625L177.575 56.6396C180.014 55.4678 181.523 53.9663 182.35 52.2012L177.824 52.6406L177.634 51.6152L182.717 51.2783C182.951 50.5532 183.09 49.7842 183.141 48.9785H178.293V48.0264H184.299ZM188.078 46.6641V59.6865H186.921V46.6641H188.078ZM194.238 47.6162C196.289 47.6162 197.739 48.8613 197.739 50.6777C197.739 52.4941 196.289 53.7393 194.238 53.7393C192.187 53.7393 190.708 52.4941 190.722 50.6777C190.708 48.8613 192.187 47.6162 194.238 47.6162ZM194.238 48.627C192.846 48.627 191.836 49.4619 191.85 50.6777C191.836 51.8936 192.846 52.7285 194.238 52.7285C195.615 52.7285 196.611 51.8936 196.611 50.6777C196.611 49.4619 195.615 48.627 194.238 48.627ZM200.654 46.6641V59.7158H199.511V46.6641H200.654ZM190.048 55.8633C192.451 55.8633 195.761 55.8486 198.647 55.4238L198.735 56.2734C195.761 56.8301 192.553 56.8447 190.21 56.8447L190.048 55.8633ZM216.328 47.5137V48.5098C216.328 49.6816 216.328 51.1318 215.962 53.1973H217.969V54.1494H214.834V59.6865H213.692V54.1494H210.352V59.6865H209.209V54.1494H206.104V53.1973H214.79C215.215 51.1465 215.215 49.6743 215.215 48.5098V48.4658H207.627V47.5137H216.328ZM229.563 46.6641V54.4277H228.406V51.0146H225.784V50.0625H228.406V46.6641H229.563ZM225.242 54.8379C227.952 54.8379 229.607 55.7168 229.607 57.2549C229.607 58.793 227.952 59.6719 225.242 59.6865C222.532 59.6719 220.877 58.793 220.877 57.2549C220.877 55.7168 222.532 54.8379 225.242 54.8379ZM225.242 55.7314C223.25 55.7314 222.005 56.3027 222.02 57.2549C222.005 58.1924 223.25 58.7637 225.242 58.7637C227.234 58.7637 228.465 58.1924 228.465 57.2549C228.465 56.3027 227.234 55.7314 225.242 55.7314ZM223.294 49.0518C223.294 50.751 224.598 52.3623 226.502 53.0215L225.901 53.9443C224.437 53.417 223.301 52.3257 222.752 50.9707C222.181 52.5015 220.972 53.7246 219.427 54.3105L218.826 53.3877C220.76 52.6846 222.137 50.9268 222.137 49.0664V48.583H219.192V47.6162H226.209V48.583H223.294V49.0518ZM259.484 57.0938V58.0752H247.56V57.0938H252.907V54.0908H248.644V53.168H250.68V48.8906H248.615V47.9385H258.341V48.8906H256.276V53.168H258.312V54.0908H254.035V57.0938H259.484ZM251.823 53.168H255.148V48.8906H251.823V53.168ZM270.741 52.7725V53.71H266.713V57.0791H272.148V58.0459H260.224V57.0791H265.585V53.71H261.747V47.7334H270.61V48.6709H262.904V52.7725H270.741ZM277.18 47.3086C279.128 47.2939 280.52 48.3633 280.52 49.96C280.52 51.542 279.128 52.6406 277.18 52.626C275.231 52.6406 273.84 51.542 273.84 49.96C273.84 48.3633 275.231 47.2939 277.18 47.3086ZM277.18 48.2461C275.876 48.2314 274.953 48.9492 274.968 49.96C274.953 50.9854 275.876 51.6885 277.18 51.6738C278.498 51.6885 279.421 50.9854 279.421 49.96C279.421 48.9492 278.498 48.2314 277.18 48.2461ZM283.625 46.6787V59.7012H282.497V46.6787H283.625ZM272.858 53.7393C275.305 53.7393 278.645 53.6953 281.545 53.2705L281.618 54.1348C280.373 54.3618 279.077 54.501 277.824 54.5742V59.291H276.682V54.6475C275.356 54.7061 274.104 54.7134 273.02 54.7207L272.858 53.7393ZM292.539 48.0264C292.524 51.791 291.162 55.2627 286.46 57.5625L285.815 56.6396C288.254 55.4678 289.763 53.9663 290.591 52.2012L286.064 52.6406L285.874 51.6152L290.957 51.2783C291.191 50.5532 291.33 49.7842 291.382 48.9785H286.533V48.0264H292.539ZM296.318 46.6641V59.6865H295.161V46.6641H296.318ZM302.478 47.6162C304.529 47.6162 305.979 48.8613 305.979 50.6777C305.979 52.4941 304.529 53.7393 302.478 53.7393C300.427 53.7393 298.948 52.4941 298.962 50.6777C298.948 48.8613 300.427 47.6162 302.478 47.6162ZM302.478 48.627C301.087 48.627 300.076 49.4619 300.09 50.6777C300.076 51.8936 301.087 52.7285 302.478 52.7285C303.855 52.7285 304.851 51.8936 304.851 50.6777C304.851 49.4619 303.855 48.627 302.478 48.627ZM308.894 46.6641V59.7158H307.752V46.6641H308.894ZM298.289 55.8633C300.691 55.8633 304.002 55.8486 306.887 55.4238L306.975 56.2734C304.002 56.8301 300.794 56.8447 298.45 56.8447L298.289 55.8633ZM318.709 50.165C318.709 52.4648 320.233 54.8232 322.078 55.7314L321.375 56.6543C319.94 55.8999 318.738 54.3618 318.167 52.5527C317.581 54.479 316.351 56.1196 314.886 56.9033L314.154 55.9805C316.058 55.043 317.567 52.5381 317.581 50.165V47.792H318.709V50.165ZM324.422 46.6641V51.9521H326.605V52.9482H324.422V59.6865H323.279V46.6641H324.422ZM338.873 53.1094V54.0615H327.008V53.1094H329.952V51.2783C328.912 50.8755 328.326 50.209 328.326 49.3301C328.326 47.792 330.084 46.9131 332.94 46.9131C335.768 46.9131 337.54 47.792 337.54 49.3301C337.54 50.2017 336.961 50.8682 335.929 51.2637V53.1094H338.873ZM332.94 55.0576C335.738 55.0576 337.408 55.8633 337.423 57.3574C337.408 58.8369 335.738 59.6572 332.94 59.6572C330.113 59.6572 328.443 58.8369 328.443 57.3574C328.443 55.8633 330.113 55.0576 332.94 55.0576ZM332.94 55.9365C330.846 55.9512 329.601 56.4639 329.615 57.3574C329.601 58.2363 330.846 58.7637 332.94 58.7637C335.006 58.7637 336.266 58.2363 336.266 57.3574C336.266 56.4639 335.006 55.9512 332.94 55.9365ZM332.94 47.8213C330.816 47.8213 329.498 48.3926 329.513 49.3301C329.498 50.2822 330.816 50.8389 332.94 50.8389C335.05 50.8389 336.368 50.2822 336.368 49.3301C336.368 48.3926 335.05 47.8213 332.94 47.8213ZM331.095 53.1094H334.786V51.5859C334.237 51.6812 333.622 51.7324 332.94 51.7324C332.259 51.7324 331.644 51.6812 331.095 51.5859V53.1094ZM349.142 54.8525C351.823 54.8525 353.434 55.7314 353.434 57.2549C353.434 58.793 351.823 59.6719 349.142 59.6865C346.462 59.6719 344.821 58.793 344.821 57.2549C344.821 55.7314 346.462 54.8525 349.142 54.8525ZM349.142 55.7607C347.179 55.7754 345.963 56.3174 345.978 57.2549C345.963 58.1924 347.179 58.749 349.142 58.749C351.12 58.749 352.321 58.1924 352.321 57.2549C352.321 56.3174 351.12 55.7754 349.142 55.7607ZM353.317 46.6641V49.9453H355.28V50.9268H353.317V54.501H352.174V46.6641H353.317ZM344.821 47.4844V49.4766H348.615V47.4844H349.757V53.4902H343.693V47.4844H344.821ZM344.821 52.5527H348.615V50.3848H344.821V52.5527ZM357.602 47.3379V49.3594H361.235V47.3379H362.363V49.8721H365.439V46.6641H366.596V53.7832H365.439V50.8389H362.363V53.2998H356.459V47.3379H357.602ZM357.602 52.3623H361.235V50.2676H357.602V52.3623ZM359.36 54.4131V56.0098H365.439V54.4131H366.581V59.5107H358.203V54.4131H359.36ZM359.36 58.5586H365.439V56.9326H359.36V58.5586Z" fill="#0275D8"/>
<rect width="98" height="71" transform="translate(2 75)" fill="#6A39C0"/>
<path d="M51 94.25C53.3206 94.25 55.5462 95.1719 57.1872 96.8128C58.8281 98.4538 59.75 100.679 59.75 103C59.75 105.321 58.8281 107.546 57.1872 109.187C55.5462 110.828 53.3206 111.75 51 111.75C48.6794 111.75 46.4538 110.828 44.8128 109.187C43.1719 107.546 42.25 105.321 42.25 103C42.25 100.679 43.1719 98.4538 44.8128 96.8128C46.4538 95.1719 48.6794 94.25 51 94.25ZM33.5 100.5C34.9 100.5 36.2 100.875 37.325 101.55C36.95 105.125 38 108.675 40.15 111.45C38.9 113.85 36.4 115.5 33.5 115.5C31.5109 115.5 29.6032 114.71 28.1967 113.303C26.7902 111.897 26 109.989 26 108C26 106.011 26.7902 104.103 28.1967 102.697C29.6032 101.29 31.5109 100.5 33.5 100.5ZM68.5 100.5C70.4891 100.5 72.3968 101.29 73.8033 102.697C75.2098 104.103 76 106.011 76 108C76 109.989 75.2098 111.897 73.8033 113.303C72.3968 114.71 70.4891 115.5 68.5 115.5C65.6 115.5 63.1 113.85 61.85 111.45C64.0287 108.636 65.0404 105.09 64.675 101.55C65.8 100.875 67.1 100.5 68.5 100.5ZM34.75 126.125C34.75 120.95 42.025 116.75 51 116.75C59.975 116.75 67.25 120.95 67.25 126.125V130.5H34.75V126.125ZM21 130.5V126.75C21 123.275 25.725 120.35 32.125 119.5C30.65 121.2 29.75 123.55 29.75 126.125V130.5H21ZM81 130.5H72.25V126.125C72.25 123.55 71.35 121.2 69.875 119.5C76.275 120.35 81 123.275 81 126.75V130.5Z" fill="white"/>
<path d="M126.283 88.7451V102.383H123.679V97.9531H119.413C118.511 98.9067 117.208 99.4912 115.763 99.4912C112.933 99.4912 110.779 97.4404 110.8 94.6719C110.779 91.8623 112.933 89.832 115.763 89.8115C117.208 89.8218 118.5 90.396 119.413 91.3496H123.679V88.7451H126.283ZM126.734 104.967V107.059H113.896V101.009H116.521V104.967H126.734ZM115.763 92.1494C114.307 92.1494 113.261 93.0928 113.281 94.6719C113.261 96.2305 114.307 97.1738 115.763 97.1738C117.137 97.1738 118.203 96.2305 118.203 94.6719C118.203 93.0928 117.137 92.1494 115.763 92.1494ZM120.541 93.4414C120.633 93.8311 120.685 94.2412 120.685 94.6719C120.685 95.082 120.633 95.4819 120.541 95.8613H123.679V93.4414H120.541ZM143.336 89.5449V90.8574C143.336 92.2314 143.336 93.9746 142.967 96.3125H145.366V98.4043H128.283V96.3125H140.321C140.66 94.354 140.721 92.8467 140.731 91.6162H130.375V89.5449H143.336ZM143.397 100.599V107.407H140.772V102.649H130.088V100.599H143.397ZM165.239 88.7246V93.8105H167.761V95.9639H165.239V102.219H162.614V88.7246H165.239ZM159.579 90.2217V92.3135H153.775V97.0303C157.149 97.0098 159.005 96.9072 161.096 96.4561L161.363 98.5479C159.025 99.04 156.872 99.1426 152.729 99.1426H151.15V90.2217H159.579ZM165.916 104.967V107.059H153.139V100.783H155.744V104.967H165.916ZM173.986 94.4053C173.986 97.2354 175.011 100.065 177.657 101.501L176.221 103.408C174.54 102.547 173.422 101.029 172.776 99.2041C172.12 101.193 171.002 102.875 169.31 103.859L167.813 101.891C170.5 100.332 171.505 97.2969 171.525 94.4053V93.9746H168.51V91.8828H171.525V89.3604H173.966V91.8828H176.919V93.9746H173.986V94.4053ZM184.301 88.7246V107.387H181.82V88.7246H184.301ZM180.487 89.0322V106.525H178.026V97.9326H175.832V95.7998H178.026V89.0322H180.487ZM202.072 88.7246V107.387H199.57V88.7246H202.072ZM198.175 88.9912V106.525H195.714V97.707H194.217C193.971 101.378 192.413 103.593 190.116 103.593C187.655 103.593 186.055 101.009 186.055 96.8047C186.055 92.6211 187.655 90.0576 190.116 90.0576C192.361 90.0576 193.9 92.1494 194.197 95.6357H195.714V88.9912H198.175ZM190.116 92.5186C189.07 92.5186 188.455 93.9541 188.475 96.8047C188.455 99.6758 189.07 101.091 190.116 101.07C191.182 101.091 191.818 99.6758 191.818 96.8047C191.818 93.9541 191.182 92.5186 190.116 92.5186ZM224.18 88.7246V107.387H221.699V98.0146H219.894V106.484H217.495V89.0322H219.894V95.9229H221.699V88.7246H224.18ZM215.526 90.8779V92.9902H211.199V100.947C213.003 100.937 214.603 100.845 216.408 100.517L216.592 102.649C214.316 103.08 212.327 103.142 209.866 103.162H208.574V90.8779H215.526ZM234.773 91.5752V93.6465H225.749V91.5752H228.99V89.2373H231.574V91.5752H234.773ZM230.302 94.4873C232.681 94.4873 234.383 96.333 234.404 98.917C234.383 101.521 232.681 103.367 230.302 103.367C227.923 103.367 226.18 101.521 226.18 98.917C226.18 96.333 227.923 94.4873 230.302 94.4873ZM230.302 96.6611C229.215 96.6611 228.477 97.502 228.477 98.917C228.477 100.332 229.215 101.152 230.302 101.152C231.348 101.152 232.086 100.332 232.107 98.917C232.086 97.502 231.348 96.6611 230.302 96.6611ZM241.91 88.7246V107.387H239.428V98.4043H237.911V106.587H235.47V89.0938H237.911V96.3125H239.428V88.7246H241.91ZM262.726 88.7246V92.334H265.248V94.4873H262.726V98.0557H260.101V88.7246H262.726ZM262.726 98.7939V103.88H252.944V105.131H263.259V107.182H250.38V101.993H260.121V100.804H250.339V98.7939H262.726ZM253.067 89.2783C255.938 89.2988 258.071 91.0215 258.071 93.5029C258.071 95.9639 255.938 97.7275 253.067 97.7275C250.196 97.7275 248.042 95.9639 248.042 93.5029C248.042 91.0215 250.196 89.2988 253.067 89.2783ZM253.067 91.4111C251.631 91.4111 250.585 92.1904 250.606 93.5029C250.585 94.8359 251.631 95.6562 253.067 95.6562C254.502 95.6562 255.528 94.8359 255.528 93.5029C255.528 92.1904 254.502 91.4111 253.067 91.4111ZM281.029 90.3447V92.1084C281.029 94.4463 281.029 97.0713 280.271 101.029L277.646 100.763C278.353 97.2354 278.384 94.6104 278.404 92.416H267.412V90.3447H281.029ZM282.67 102.978V105.11H265.649V102.978H271.739V96.5586H274.344V102.978H282.67ZM303.425 88.7451V99.0811H300.8V88.7451H303.425ZM294.955 91.1855C294.935 93.4004 296.288 95.5947 299.344 96.4355L298.093 98.5068C295.939 97.8711 294.453 96.5791 293.602 94.918C292.75 96.7227 291.223 98.1479 288.987 98.8145L287.736 96.7637C290.853 95.8203 292.227 93.5029 292.227 91.1855V89.3809H294.955V91.1855ZM303.527 99.9219V101.993H301.292V105.09H303.691V107.182H290.546V105.09H292.966V101.993H290.71V99.9219H303.527ZM295.55 105.09H298.708V101.993H295.55V105.09ZM314.038 89.668C317.975 89.6885 321.052 91.8008 321.072 95.041C321.052 98.3018 317.975 100.435 314.038 100.414C310.08 100.435 307.024 98.3018 307.024 95.041C307.024 91.8008 310.08 89.6885 314.038 89.668ZM314.038 91.8008C311.454 91.7803 309.567 93.0312 309.567 95.041C309.567 97.0713 311.454 98.2812 314.038 98.2812C316.622 98.2812 318.468 97.0713 318.488 95.041C318.468 93.0312 316.622 91.7803 314.038 91.8008ZM322.61 102.998V105.11H305.527V102.998H322.61ZM338.884 88.7451V102.362H336.259V88.7451H338.884ZM339.376 104.967V107.059H326.374V101.05H329.019V104.967H339.376ZM330.414 91.5752C330.393 94.0361 331.706 96.4561 334.782 97.4404L333.449 99.4912C331.347 98.7939 329.891 97.3994 329.06 95.6152C328.23 97.5327 326.733 99.0708 324.549 99.8193L323.195 97.748C326.333 96.7021 327.686 94.0977 327.686 91.5752V89.7705H330.414V91.5752ZM355.711 88.7246V95.8818H358.356V98.0352H355.711V107.346H353.086V88.7246H355.711ZM350.727 90.6318C350.707 96.21 348.533 101.05 342.258 104.126L340.781 102.116C345.2 99.9014 347.569 96.9277 348.061 92.7646H341.847V90.6318H350.727ZM375.798 103.06V105.213H358.715V103.06H362.53V98.4863C361.084 97.625 360.213 96.3022 360.213 94.6514C360.213 91.6367 363.166 89.627 367.226 89.627C371.266 89.627 374.24 91.6367 374.26 94.6514C374.25 96.2612 373.399 97.5737 372.005 98.4453V103.06H375.798ZM367.226 91.6982C364.56 91.6982 362.797 92.7646 362.797 94.6514C362.797 96.4766 364.56 97.6045 367.226 97.6045C369.872 97.6045 371.656 96.4766 371.676 94.6514C371.656 92.7646 369.872 91.6982 367.226 91.6982ZM365.114 103.06H369.359V99.4297C368.693 99.563 367.975 99.6348 367.226 99.6348C366.478 99.6348 365.77 99.5732 365.114 99.4297V103.06ZM379.706 100.824C379.726 98.2812 380.403 97.4814 381.633 96.7227C382.515 96.1484 383.192 95.5127 383.192 94.5693C383.192 93.5439 382.392 92.8672 381.408 92.8672C380.444 92.8672 379.562 93.5029 379.521 94.7129H376.609C376.67 91.8213 378.803 90.4473 381.428 90.4473C384.279 90.4473 386.309 91.9443 386.309 94.4668C386.309 96.1484 385.448 97.2354 384.094 98.0352C382.946 98.7324 382.433 99.3887 382.413 100.824V101.05H379.706V100.824ZM381.121 105.685C380.157 105.685 379.378 104.905 379.398 103.962C379.378 103.019 380.157 102.26 381.121 102.26C382.023 102.26 382.823 103.019 382.823 103.962C382.823 104.905 382.023 105.685 381.121 105.685Z" fill="#212529"/>
<path d="M120.693 119.664V123.004H122.642V123.985H120.693V127.354H119.536V119.664H120.693ZM120.693 127.94V130.562H113.384V131.72H121.191V132.54H112.241V129.786H119.551V128.761H112.212V127.94H120.693ZM110.469 126.183C111.509 126.183 112.725 126.183 113.999 126.139V125.333C112.476 125.223 111.509 124.615 111.509 123.619C111.509 122.55 112.71 121.935 114.556 121.935C116.416 121.935 117.603 122.55 117.617 123.619C117.603 124.608 116.665 125.216 115.142 125.333V126.109C116.357 126.051 117.588 125.956 118.73 125.787L118.833 126.563C116.021 127.018 112.886 127.047 110.601 127.047L110.469 126.183ZM118.335 120.66V121.495H110.791V120.66H113.999V119.547H115.142V120.66H118.335ZM114.556 122.696C113.354 122.711 112.607 123.048 112.607 123.619C112.607 124.205 113.354 124.586 114.556 124.586C115.757 124.586 116.519 124.205 116.519 123.619C116.519 123.048 115.757 122.711 114.556 122.696ZM135.071 126.109V127.032H123.191V126.109H128.567V124.586H124.7V120.279H133.592V121.202H125.828V123.648H133.679V124.586H129.68V126.109H135.071ZM129.124 127.984C131.922 127.984 133.592 128.834 133.606 130.328C133.592 131.837 131.922 132.672 129.124 132.687C126.311 132.672 124.627 131.837 124.627 130.328C124.627 128.834 126.311 127.984 129.124 127.984ZM129.124 128.893C127.029 128.893 125.784 129.435 125.799 130.328C125.784 131.236 127.029 131.764 129.124 131.764C131.189 131.764 132.449 131.236 132.449 130.328C132.449 129.435 131.189 128.893 129.124 128.893ZM143.978 123.663C143.978 125.875 145.589 128.116 147.508 128.951L146.864 129.859C145.34 129.164 144.022 127.662 143.421 125.86C142.806 127.772 141.495 129.435 140.008 130.182L139.32 129.273C141.18 128.38 142.806 125.919 142.821 123.663V121.964H139.745V121.012H147.083V121.964H143.978V123.663ZM150.057 119.664V132.687H148.9V119.664H150.057ZM162.779 128.058V132.687H161.622V128.98H154.02V128.058H162.779ZM162.779 119.664V127.34H161.622V125.465H158.268C157.66 126.205 156.7 126.644 155.572 126.637C153.624 126.651 152.189 125.362 152.189 123.517C152.189 121.7 153.624 120.411 155.572 120.411C156.693 120.411 157.653 120.851 158.268 121.583H161.622V119.664H162.779ZM155.572 121.393C154.239 121.393 153.287 122.286 153.287 123.517C153.287 124.791 154.239 125.67 155.572 125.67C156.847 125.67 157.828 124.791 157.828 123.517C157.828 122.286 156.847 121.393 155.572 121.393ZM158.78 124.513H161.622V122.535H158.78C158.883 122.843 158.942 123.165 158.942 123.517C158.942 123.868 158.883 124.205 158.78 124.513ZM170.58 120.514C173.305 120.514 175.341 121.935 175.341 124.088C175.341 126.256 173.305 127.677 170.58 127.662C167.855 127.677 165.819 126.256 165.819 124.088C165.819 121.935 167.855 120.514 170.58 120.514ZM170.58 121.451C168.485 121.437 166.903 122.535 166.918 124.088C166.903 125.67 168.485 126.725 170.58 126.725C172.66 126.725 174.228 125.67 174.228 124.088C174.228 122.535 172.66 121.437 170.58 121.451ZM176.571 129.991V130.958H164.647V129.991H176.571ZM189.235 130.108V131.075H177.311V130.108H182.673V127.647H178.805V123.634H186.598V121.583H178.776V120.631H187.726V124.571H179.948V126.695H188.034V127.647H183.801V130.108H189.235ZM203.738 120.514V121.656C203.738 122.894 203.738 124.234 203.371 126.109H205.305V127.062H199.929V132.716H198.772V127.062H193.44V126.109H202.2C202.595 124.234 202.595 122.865 202.595 121.656V121.466H194.934V120.514H203.738ZM218.013 126.563V127.501H212.71V130.05H211.568V127.501H206.089V126.563H218.013ZM216.68 131.441V132.408H207.613V128.849H208.755V131.441H216.68ZM208.828 120.089V121.759H215.274V120.089H216.416V125.289H207.686V120.089H208.828ZM208.828 124.352H215.274V122.638H208.828V124.352ZM226.341 123.941V124.879H223.704V126.695C224.92 126.644 226.136 126.556 227.264 126.432L227.352 127.281C224.554 127.662 221.448 127.75 219.002 127.75L218.826 126.812C219.969 126.805 221.25 126.791 222.562 126.739V124.879H220.013V120.514H226.238V121.466H221.17V123.941H226.341ZM229.505 119.679V129.42H228.348V119.679H229.505ZM229.93 131.441V132.408H221.053V128.746H222.195V131.441H229.93ZM300.925 125.714V126.622H289.002V125.714H300.925ZM299.431 127.662V130.431H291.609V131.676H299.856V132.511H290.452V129.64H298.289V128.526H290.437V127.662H299.431ZM299.387 120.06V122.755H291.697V123.897H299.622V124.732H290.554V121.964H298.23V120.895H290.51V120.06H299.387ZM315.311 119.679V123.619H317.259V124.586H315.311V128.409H314.154V119.679H315.311ZM305.086 127.076C306.126 127.076 307.342 127.076 308.616 127.032V126.08C307.1 125.948 306.126 125.238 306.126 124.161C306.126 122.975 307.342 122.242 309.173 122.242C311.019 122.242 312.22 122.975 312.235 124.161C312.22 125.23 311.268 125.941 309.759 126.08V126.988C310.975 126.93 312.205 126.834 313.348 126.666L313.45 127.501C310.623 127.999 307.503 128.014 305.218 128.014L305.086 127.076ZM315.311 129.054V132.687H314.154V129.977H306.683V129.054H315.311ZM312.952 120.865V121.744H305.408V120.865H308.616V119.562H309.759V120.865H312.952ZM309.173 123.062C307.972 123.048 307.225 123.473 307.225 124.161C307.225 124.835 307.972 125.304 309.173 125.289C310.374 125.304 311.136 124.835 311.136 124.161C311.136 123.473 310.374 123.048 309.173 123.062ZM328.561 119.679V129.2H327.418V119.679H328.561ZM328.971 131.441V132.408H320.152V128.233H321.295V131.441H328.971ZM321.529 120.587C323.478 120.587 324.942 121.905 324.942 123.78C324.942 125.685 323.478 126.988 321.529 126.988C319.581 126.988 318.116 125.685 318.116 123.78C318.116 121.905 319.581 120.587 321.529 120.587ZM321.529 121.598C320.211 121.598 319.229 122.506 319.244 123.78C319.229 125.084 320.211 125.978 321.529 125.978C322.818 125.978 323.814 125.084 323.814 123.78C323.814 122.506 322.818 121.598 321.529 121.598ZM336.976 121.92V122.857H330.443V121.92H333.153V120.06H334.296V121.92H336.976ZM333.71 123.736C335.35 123.736 336.522 124.967 336.537 126.695C336.522 128.438 335.35 129.684 333.71 129.684C332.084 129.684 330.912 128.438 330.912 126.695C330.912 124.967 332.084 123.736 333.71 123.736ZM333.71 124.703C332.684 124.718 331.937 125.553 331.937 126.695C331.937 127.853 332.684 128.688 333.71 128.673C334.75 128.688 335.512 127.853 335.512 126.695C335.512 125.553 334.75 124.718 333.71 124.703ZM341.561 119.664V132.687H340.463V126.109H338.734V132.042H337.65V119.986H338.734V125.157H340.463V119.664H341.561ZM355.06 130.064V131.017H343.136V130.064H348.498V127.252H344.543V120.587H345.7V122.945H352.467V120.587H353.595V127.252H349.626V130.064H355.06ZM345.7 126.314H352.467V123.883H345.7V126.314ZM359.667 123.37C359.667 125.436 360.678 127.677 362.407 128.702L361.747 129.596C360.495 128.834 359.594 127.442 359.14 125.86C358.657 127.589 357.69 129.076 356.386 129.874L355.654 129.01C357.455 127.955 358.554 125.641 358.554 123.414V120.895H359.667V123.37ZM366.962 119.664V132.687H365.849V119.664H366.962ZM364.267 119.942V132.027H363.183V125.318H360.971V124.337H363.183V119.942H364.267ZM380.388 130.05V131.017H368.464V130.05H371.423V126.534C370.31 125.956 369.636 125.018 369.636 123.839C369.636 121.817 371.613 120.499 374.397 120.484C377.18 120.499 379.157 121.817 379.157 123.839C379.157 124.996 378.506 125.926 377.429 126.505V130.05H380.388ZM374.397 121.437C372.258 121.422 370.749 122.389 370.749 123.839C370.749 125.289 372.258 126.271 374.397 126.271C376.521 126.271 378.044 125.289 378.044 123.839C378.044 122.389 376.521 121.422 374.397 121.437ZM372.551 130.05H376.272V126.944C375.708 127.098 375.078 127.179 374.397 127.179C373.73 127.179 373.108 127.105 372.551 126.959V130.05ZM382.505 131.588C381.992 131.588 381.553 131.163 381.567 130.636C381.553 130.123 381.992 129.698 382.505 129.698C383.018 129.698 383.442 130.123 383.442 130.636C383.442 131.163 383.018 131.588 382.505 131.588Z" fill="#212529"/>
<path d="M245.692 119.679V129.303H244.535V125.787H241.166C240.565 126.556 239.598 127.018 238.485 127.018C236.537 127.018 235.101 125.67 235.101 123.766C235.101 121.861 236.537 120.514 238.485 120.499C239.591 120.506 240.536 120.96 241.151 121.715H244.535V119.679H245.692ZM246.058 131.441V132.408H237.328V128.292H238.485V131.441H246.058ZM238.485 121.524C237.152 121.539 236.2 122.462 236.2 123.766C236.2 125.069 237.152 125.992 238.485 125.992C239.759 125.992 240.741 125.069 240.741 123.766C240.741 122.462 239.759 121.539 238.485 121.524ZM241.678 122.667C241.788 123.004 241.854 123.37 241.854 123.766C241.854 124.146 241.788 124.505 241.678 124.835H244.535V122.667H241.678ZM257.916 120.309V121.202C257.916 122.184 257.916 123.451 257.594 125.157H259.484V126.109H247.56V125.157H256.437C256.767 123.451 256.774 122.213 256.774 121.246H249.069V120.309H257.916ZM258.019 128.058V132.73H256.862V128.98H248.82V128.058H258.019ZM273.869 119.664V123.546H275.847V124.513H273.869V129.098H272.727V119.664H273.869ZM270.104 120.792V121.759H265.446V125.816C268.061 125.816 269.548 125.75 271.291 125.392L271.438 126.344C269.606 126.695 268.054 126.783 265.314 126.783H264.304V120.792H270.104ZM274.47 131.441V132.408H265.725V128.146H266.853V131.441H274.47ZM280.161 123.678C280.161 125.772 281.23 127.911 283.003 128.863L282.344 129.728C281.047 129.024 280.11 127.677 279.634 126.109C279.165 127.779 278.235 129.229 276.938 130.021L276.25 129.142C278.022 128.116 279.062 125.831 279.077 123.678V123.033H276.601V122.081H279.077V120.147H280.176V122.081H282.607V123.033H280.161V123.678ZM287.485 119.664V132.687H286.387V119.664H287.485ZM284.848 119.986V132.013H283.764V125.787H281.714V124.806H283.764V119.986H284.848Z" fill="#0275D8"/>
<rect width="98" height="71" transform="translate(2 148)" fill="#6A39C0"/>
<path fill-rule="evenodd" clip-rule="evenodd" d="M73.5 163.5V198.5H61V208.5L45.75 198.5H28.5V163.5H73.5ZM51.1096 187.063C50.3088 187.063 49.6447 187.324 49.1174 187.846C48.59 188.369 48.3264 189.02 48.3264 189.802C48.3264 190.622 48.5852 191.296 49.1027 191.823C49.6203 192.351 50.2893 192.614 51.1096 192.614C51.9104 192.614 52.572 192.351 53.0945 191.823C53.617 191.296 53.8782 190.637 53.8781 189.846C53.8781 189.045 53.6169 188.381 53.0945 187.854C52.5719 187.326 51.9103 187.063 51.1096 187.063ZM52.1936 171.125C50.0158 171.125 47.843 171.691 45.675 172.824L46.9787 176.076C48.7462 175.07 50.255 174.567 51.5051 174.567C52.2668 174.567 52.8698 174.751 53.3142 175.117C53.7585 175.483 53.9807 175.978 53.9807 176.604C53.9807 177.102 53.822 177.536 53.5046 177.907C53.2665 178.186 52.8156 178.568 52.152 179.055L50.5805 180.18C50.4458 180.28 50.3127 180.382 50.1811 180.485L49.9084 180.713C49.6643 180.932 49.4689 181.184 49.3225 181.467C49.0686 181.955 48.9416 182.819 48.9416 184.06V185.349H53.2629V184.748C53.2629 183.859 53.3752 183.242 53.5998 182.895C53.8244 182.548 54.425 182.048 55.4016 181.394L55.863 181.078C56.8969 180.348 57.6317 179.664 58.0676 179.028C58.5656 178.3 58.8146 177.424 58.8146 176.398C58.8146 174.885 58.302 173.654 57.2766 172.707C56.1145 171.652 54.4201 171.125 52.1936 171.125Z" fill="white"/>
<path d="M127.616 170.953V173.024H120.582V176.244H117.998V173.024H110.533V170.953H127.616ZM125.422 162.545V169.415H112.666V162.545H125.422ZM115.229 164.575V167.385H122.858V164.575H115.229ZM125.729 177.967V180.059H112.543V174.624H115.147V177.967H125.729ZM134.333 162.976C137.286 162.955 139.501 164.883 139.501 167.549C139.501 170.235 137.286 172.143 134.333 172.143C131.38 172.143 129.144 170.235 129.144 167.549C129.144 164.883 131.38 162.955 134.333 162.976ZM134.333 165.231C132.856 165.231 131.728 166.093 131.749 167.549C131.728 169.025 132.856 169.866 134.333 169.866C135.809 169.866 136.937 169.025 136.958 167.549C136.937 166.093 135.83 165.231 134.333 165.231ZM143.972 161.725V180.428H141.367V161.725H143.972ZM128.365 174.48C131.687 174.501 136.302 174.439 140.301 173.886L140.506 175.772C136.363 176.572 131.934 176.613 128.673 176.613L128.365 174.48ZM152.883 165.949C152.862 169.292 154.298 172.676 157.292 174.111L155.713 176.203C153.713 175.219 152.37 173.373 151.591 171.117C150.781 173.537 149.335 175.516 147.222 176.552L145.602 174.439C148.761 172.983 150.258 169.415 150.258 165.949V163.16H152.883V165.949ZM160.737 161.725V168.923H163.485V171.138H160.737V180.387H158.112V161.725H160.737ZM178.549 161.725V166.503H181.071V168.677H178.549V173.578H175.924V161.725H178.549ZM172.458 173.742C176.293 173.742 178.754 174.993 178.754 177.085C178.754 179.136 176.293 180.387 172.458 180.387C168.541 180.387 166.121 179.136 166.141 177.085C166.121 174.993 168.541 173.742 172.458 173.742ZM172.458 175.731C170.017 175.731 168.705 176.162 168.725 177.085C168.705 177.967 170.017 178.438 172.458 178.438C174.837 178.438 176.129 177.967 176.129 177.085C176.129 176.162 174.837 175.731 172.458 175.731ZM174.816 163.509V165.539H163.742V163.509H167.987V161.622H170.592V163.509H174.816ZM169.279 166.175C171.986 166.175 173.873 167.549 173.873 169.538C173.873 171.548 171.986 172.881 169.279 172.881C166.531 172.881 164.644 171.548 164.644 169.538C164.644 167.549 166.531 166.175 169.279 166.175ZM169.279 168.082C168.028 168.082 167.187 168.595 167.208 169.538C167.187 170.461 168.028 170.953 169.279 170.933C170.53 170.953 171.391 170.461 171.391 169.538C171.391 168.595 170.53 168.082 169.279 168.082Z" fill="#212529"/>
<path d="M111.011 207.488V196.546H112.227V197.806H112.373C112.637 197.381 113.135 196.443 114.673 196.443C116.665 196.443 118.057 198.025 118.057 200.545C118.057 203.064 116.665 204.661 114.688 204.661C113.164 204.661 112.637 203.724 112.373 203.284H112.271V207.488H111.011ZM112.241 200.516C112.241 202.303 113.047 203.533 114.512 203.533C116.021 203.533 116.797 202.215 116.797 200.516C116.797 198.86 116.035 197.571 114.512 197.571C113.018 197.571 112.241 198.758 112.241 200.516ZM122.649 204.661C120.481 204.661 119.016 203.035 119.016 200.56C119.016 198.084 120.481 196.443 122.649 196.443C124.803 196.443 126.253 198.084 126.253 200.56C126.253 203.035 124.803 204.661 122.649 204.661ZM122.649 203.548C124.246 203.548 124.993 202.142 124.993 200.56C124.993 198.978 124.246 197.557 122.649 197.557C121.023 197.557 120.276 198.978 120.276 200.56C120.276 202.142 121.023 203.548 122.649 203.548ZM130.611 204.661C128.633 204.661 127.227 203.064 127.227 200.545C127.227 198.025 128.633 196.443 130.626 196.443C132.164 196.443 132.662 197.381 132.925 197.806H133.013V193.895H134.288V204.5H133.057V203.284H132.925C132.647 203.724 132.134 204.661 130.611 204.661ZM130.787 203.533C132.237 203.533 133.057 202.303 133.057 200.516C133.057 198.758 132.266 197.571 130.787 197.571C129.263 197.571 128.502 198.86 128.502 200.516C128.502 202.215 129.278 203.533 130.787 203.533ZM139.422 204.661C137.254 204.661 135.789 203.035 135.789 200.56C135.789 198.084 137.254 196.443 139.422 196.443C141.576 196.443 143.026 198.084 143.026 200.56C143.026 203.035 141.576 204.661 139.422 204.661ZM139.422 203.548C141.019 203.548 141.766 202.142 141.766 200.56C141.766 198.978 141.019 197.557 139.422 197.557C137.796 197.557 137.049 198.978 137.049 200.56C137.049 202.142 137.796 203.548 139.422 203.548ZM148.805 198.611C148.629 197.952 148.131 197.513 147.194 197.513C146.212 197.513 145.509 198.04 145.509 198.714C145.509 199.241 145.934 199.607 146.871 199.827L148.058 200.12C149.479 200.457 150.182 201.16 150.182 202.273C150.182 203.65 149.054 204.661 147.062 204.661C145.275 204.661 144.205 203.87 144 202.42H145.319C145.465 203.196 146.036 203.562 147.032 203.562C148.16 203.562 148.878 203.094 148.878 202.347C148.878 201.79 148.483 201.409 147.574 201.204L146.373 200.926C144.982 200.604 144.249 199.842 144.249 198.787C144.249 197.425 145.436 196.443 147.194 196.443C148.834 196.443 149.874 197.322 150.035 198.611H148.805ZM154.994 196.546V197.601H153.324V202.215C153.324 203.24 153.822 203.401 154.364 203.401C154.599 203.401 154.921 203.387 155.111 203.372V204.544C154.921 204.573 154.599 204.603 154.232 204.603C153.178 204.603 152.05 203.943 152.05 202.537V197.601H150.849V196.546H152.05V194.642H153.324V196.546H154.994ZM159.484 204.661C157.316 204.661 155.851 203.035 155.851 200.56C155.851 198.084 157.316 196.443 159.484 196.443C161.638 196.443 163.088 198.084 163.088 200.56C163.088 203.035 161.638 204.661 159.484 204.661ZM159.484 203.548C161.081 203.548 161.828 202.142 161.828 200.56C161.828 198.978 161.081 197.557 159.484 197.557C157.858 197.557 157.111 198.978 157.111 200.56C157.111 202.142 157.858 203.548 159.484 203.548ZM164.443 204.5V196.546H165.659V197.762H165.747C166.04 196.956 166.86 196.414 167.797 196.414C167.988 196.414 168.31 196.429 168.457 196.443V197.718C168.369 197.688 168.017 197.63 167.695 197.63C166.552 197.63 165.703 198.421 165.703 199.49V204.5H164.443ZM172.463 204.661C170.163 204.661 168.743 203.035 168.743 200.589C168.743 198.143 170.178 196.443 172.346 196.443C174.016 196.443 175.774 197.469 175.774 200.413V200.94H170.002C170.061 202.625 171.042 203.548 172.463 203.548C173.415 203.548 174.016 203.138 174.309 202.64H175.657C175.276 203.841 174.104 204.661 172.463 204.661ZM170.017 199.871H174.499C174.499 198.538 173.65 197.557 172.346 197.557C170.969 197.557 170.09 198.641 170.017 199.871ZM180.85 193.895V204.5H179.517V195.271H179.458L176.88 196.985V195.652L179.517 193.895H180.85ZM187.127 193.895V204.5H185.794V195.271H185.735L183.157 196.985V195.652L185.794 193.895H187.127ZM193.404 193.895V204.5H192.071V195.271H192.012L189.434 196.985V195.652L192.071 193.895H193.404ZM199.681 193.895V204.5H198.348V195.271H198.29L195.712 196.985V195.652L198.348 193.895H199.681ZM207.467 203.108C206.002 203.108 204.933 201.922 204.933 200.018C204.933 198.128 206.017 196.941 207.482 196.941C208.537 196.941 208.976 197.615 209.152 197.952H209.225V197.059H210.338V201.336C210.353 201.907 210.602 202.186 211.071 202.186C211.979 202.186 212.579 201.131 212.594 199.607C212.609 196.839 210.602 195.037 207.804 195.037C204.904 195.052 203.029 197.293 203.029 200.018C203.029 202.991 204.655 205.042 207.746 205.013C208.771 204.998 209.445 204.939 210.338 204.69V205.687C209.577 205.892 208.712 206.023 207.746 206.023C204.171 206.023 201.974 203.738 201.974 200.018C201.959 196.561 204.391 194.026 207.804 194.026C211.305 194.026 213.663 196.414 213.649 199.563C213.649 201.834 212.477 203.167 210.997 203.167C210.075 203.167 209.379 202.647 209.328 201.966H209.225C209.049 202.288 208.61 203.108 207.467 203.108ZM207.658 202.039C208.698 202.039 209.225 201.219 209.24 200.003C209.225 198.816 208.712 198.011 207.658 198.011C206.632 198.011 206.076 198.89 206.076 200.003C206.076 201.146 206.647 202.039 207.658 202.039ZM218.344 207.649C216.425 207.649 215.121 206.814 214.975 205.335H216.293C216.469 206.141 217.216 206.551 218.344 206.551C219.706 206.551 220.541 205.965 220.541 204.646V203.035H220.439C220.175 203.475 219.662 204.383 218.124 204.383C216.191 204.383 214.74 202.918 214.74 200.413C214.74 197.967 216.147 196.443 218.139 196.443C219.677 196.443 220.175 197.381 220.468 197.806H220.571V196.546H221.801V204.72C221.801 206.771 220.278 207.649 218.344 207.649ZM218.3 203.255C219.75 203.255 220.571 202.215 220.571 200.457C220.571 198.758 219.779 197.571 218.3 197.571C216.777 197.571 216.015 198.86 216.015 200.457C216.015 202.112 216.791 203.255 218.3 203.255ZM223.508 204.5V196.546H224.724V197.791H224.826C225.163 196.941 225.925 196.443 226.965 196.443C228.005 196.443 228.708 196.941 229.089 197.791H229.177C229.587 196.971 230.422 196.443 231.564 196.443C232.985 196.443 233.996 197.308 233.996 199.183V204.5H232.736V199.197C232.736 198.025 231.989 197.571 231.125 197.571C230.012 197.571 229.382 198.318 229.382 199.329V204.5H228.107V199.065C228.107 198.172 227.463 197.571 226.555 197.571C225.603 197.571 224.768 198.377 224.768 199.534V204.5H223.508ZM235.337 202.244C235.337 200.413 236.948 200.003 238.325 199.9C238.83 199.864 240.119 199.798 240.478 199.783V199.139C240.478 198.128 239.878 197.542 238.677 197.542C237.666 197.542 237.065 198.011 236.889 198.611H235.571C235.732 197.337 236.977 196.443 238.735 196.443C239.775 196.443 241.723 196.751 241.723 199.256V204.5H240.478V203.416H240.42C240.156 203.958 239.424 204.69 238.047 204.69C236.538 204.69 235.337 203.797 235.337 202.244ZM236.596 202.303C236.596 203.138 237.3 203.562 238.266 203.562C239.687 203.562 240.478 202.61 240.478 201.614V200.809L238.471 200.955C237.329 201.028 236.596 201.438 236.596 202.303ZM243.445 204.5V196.546H244.705V204.5H243.445ZM244.075 195.228C243.591 195.228 243.196 194.861 243.196 194.393C243.196 193.924 243.591 193.558 244.075 193.558C244.558 193.558 244.968 193.924 244.968 194.393C244.968 194.861 244.558 195.228 244.075 195.228ZM247.671 193.895V204.5H246.412V193.895H247.671ZM250.272 204.588C249.759 204.588 249.32 204.163 249.334 203.636C249.32 203.123 249.759 202.698 250.272 202.698C250.784 202.698 251.209 203.123 251.209 203.636C251.209 204.163 250.784 204.588 250.272 204.588ZM256.139 204.661C253.883 204.661 252.506 202.947 252.506 200.56C252.506 198.143 253.941 196.443 256.109 196.443C257.809 196.443 259.068 197.439 259.273 198.948H258.014C257.838 198.216 257.193 197.557 256.139 197.557C254.718 197.557 253.766 198.729 253.766 200.516C253.766 202.361 254.688 203.533 256.139 203.533C257.076 203.533 257.794 203.035 258.014 202.156H259.273C259.068 203.577 257.911 204.661 256.139 204.661ZM263.778 204.661C261.61 204.661 260.145 203.035 260.145 200.56C260.145 198.084 261.61 196.443 263.778 196.443C265.931 196.443 267.382 198.084 267.382 200.56C267.382 203.035 265.931 204.661 263.778 204.661ZM263.778 203.548C265.375 203.548 266.122 202.142 266.122 200.56C266.122 198.978 265.375 197.557 263.778 197.557C262.152 197.557 261.405 198.978 261.405 200.56C261.405 202.142 262.152 203.548 263.778 203.548ZM268.737 204.5V196.546H269.953V197.791H270.055C270.392 196.941 271.154 196.443 272.194 196.443C273.234 196.443 273.937 196.941 274.318 197.791H274.406C274.816 196.971 275.651 196.443 276.794 196.443C278.214 196.443 279.225 197.308 279.225 199.183V204.5H277.965V199.197C277.965 198.025 277.218 197.571 276.354 197.571C275.241 197.571 274.611 198.318 274.611 199.329V204.5H273.337V199.065C273.337 198.172 272.692 197.571 271.784 197.571C270.832 197.571 269.997 198.377 269.997 199.534V204.5H268.737Z" fill="#212529"/>
</svg>
