<svg width="60" height="61" viewBox="0 0 60 61" fill="none" xmlns="http://www.w3.org/2000/svg">
<path d="M50 10.5H10C7.225 10.5 5.025 12.725 5.025 15.5L5 45.5C5 48.275 7.225 50.5 10 50.5H50C52.775 50.5 55 48.275 55 45.5V15.5C55 12.725 52.775 10.5 50 10.5ZM21.25 38H18.25L11.875 29.25V38H8.75V23H11.875L18.125 31.75V23H21.25V38ZM33.75 26.15H27.5V28.95H33.75V32.1H27.5V34.875H33.75V38H23.75V23H33.75V26.15ZM51.25 35.5C51.25 36.875 50.125 38 48.75 38H38.75C37.375 38 36.25 36.875 36.25 35.5V23H39.375V34.275H42.2V25.475H45.325V34.25H48.125V23H51.25V35.5Z" fill="white"/>
</svg>
