<svg width="60" height="61" viewBox="0 0 60 61" fill="none" xmlns="http://www.w3.org/2000/svg">
<path d="M30 14.25C32.3206 14.25 34.5462 15.1719 36.1872 16.8128C37.8281 18.4538 38.75 20.6794 38.75 23C38.75 25.3206 37.8281 27.5462 36.1872 29.1872C34.5462 30.8281 32.3206 31.75 30 31.75C27.6794 31.75 25.4538 30.8281 23.8128 29.1872C22.1719 27.5462 21.25 25.3206 21.25 23C21.25 20.6794 22.1719 18.4538 23.8128 16.8128C25.4538 15.1719 27.6794 14.25 30 14.25ZM12.5 20.5C13.9 20.5 15.2 20.875 16.325 21.55C15.95 25.125 17 28.675 19.15 31.45C17.9 33.85 15.4 35.5 12.5 35.5C10.5109 35.5 8.60322 34.7098 7.1967 33.3033C5.79018 31.8968 5 29.9891 5 28C5 26.0109 5.79018 24.1032 7.1967 22.6967C8.60322 21.2902 10.5109 20.5 12.5 20.5ZM47.5 20.5C49.4891 20.5 51.3968 21.2902 52.8033 22.6967C54.2098 24.1032 55 26.0109 55 28C55 29.9891 54.2098 31.8968 52.8033 33.3033C51.3968 34.7098 49.4891 35.5 47.5 35.5C44.6 35.5 42.1 33.85 40.85 31.45C43.0287 28.6356 44.0404 25.0904 43.675 21.55C44.8 20.875 46.1 20.5 47.5 20.5ZM13.75 46.125C13.75 40.95 21.025 36.75 30 36.75C38.975 36.75 46.25 40.95 46.25 46.125V50.5H13.75V46.125ZM0 50.5V46.75C0 43.275 4.725 40.35 11.125 39.5C9.65 41.2 8.75 43.55 8.75 46.125V50.5H0ZM60 50.5H51.25V46.125C51.25 43.55 50.35 41.2 48.875 39.5C55.275 40.35 60 43.275 60 46.75V50.5Z" fill="white"/>
</svg>
