<svg width="60" height="61" viewBox="0 0 60 61" fill="none" xmlns="http://www.w3.org/2000/svg">
<path fill-rule="evenodd" clip-rule="evenodd" d="M52.5 10.5V45.5H40V55.5L24.75 45.5H7.5V10.5H52.5ZM30.1096 34.0625C29.3088 34.0625 28.6447 34.3237 28.1174 34.8462C27.59 35.3686 27.3264 36.0205 27.3264 36.8018C27.3264 37.6221 27.5852 38.2959 28.1027 38.8233C28.6203 39.3506 29.2893 39.6143 30.1096 39.6143C30.9104 39.6143 31.572 39.3506 32.0945 38.8233C32.617 38.2959 32.8782 37.6368 32.8781 36.8457C32.8781 36.045 32.6169 35.3809 32.0945 34.8536C31.5719 34.3262 30.9103 34.0625 30.1096 34.0625ZM31.1936 18.125C29.0158 18.125 26.843 18.6914 24.675 19.8243L25.9787 23.0762C27.7462 22.0703 29.255 21.5673 30.5051 21.5674C31.2668 21.5674 31.8698 21.7505 32.3142 22.1167C32.7585 22.4829 32.9807 22.9785 32.9807 23.6036C32.9807 24.1016 32.822 24.5362 32.5046 24.9073C32.2665 25.1855 31.8156 25.5682 31.152 26.0554L29.5805 27.1804C29.4458 27.2799 29.3127 27.3816 29.1811 27.4852L28.9084 27.7125C28.6643 27.9321 28.4689 28.1836 28.3225 28.4668C28.0686 28.955 27.9416 29.8193 27.9416 31.0596V32.3487H32.2629V31.7481C32.2629 30.8594 32.3752 30.2417 32.5998 29.895C32.8244 29.5484 33.425 29.0479 34.4016 28.3936L34.863 28.0778C35.8969 27.3478 36.6317 26.6645 37.0676 26.0278C37.5656 25.3003 37.8146 24.4239 37.8146 23.3985C37.8146 21.8847 37.302 20.6543 36.2766 19.7071C35.1145 18.6524 33.4201 18.125 31.1936 18.125Z" fill="white"/>
</svg>
