<svg width="12" height="12" viewBox="0 0 12 12" fill="none" xmlns="http://www.w3.org/2000/svg">
<rect width="12" height="12" fill="#009900"/>
<path d="M4.4 5.9999H7.6M4.8 4.3999H3.6C3.17565 4.3999 2.76869 4.56847 2.46863 4.86853C2.16857 5.16859 2 5.57556 2 5.9999C2 6.42425 2.16857 6.83122 2.46863 7.13127C2.76869 7.43133 3.17565 7.5999 3.6 7.5999H4.8M7.2 4.3999H8.4C8.82435 4.3999 9.23131 4.56847 9.53137 4.86853C9.83143 5.16859 10 5.57556 10 5.9999C10 6.42425 9.83143 6.83122 9.53137 7.13127C9.23131 7.43133 8.82435 7.5999 8.4 7.5999H7.2" stroke="white" stroke-linecap="round" stroke-linejoin="round"/>
</svg>
