<svg xmlns="http://www.w3.org/2000/svg" width="23" height="32" viewBox="0 0 23 32" fill="none">
  <path d="M11.6458 23.9428C11.8252 24.6877 11.7067 25.4597 11.3038 26.1132C10.9042 26.7701 10.2744 27.2272 9.52611 27.4101L8.97419 27.5421L7.69427 27.8503C7.69427 27.8503 7.67734 27.8536 7.66718 27.857C7.41323 27.9112 7.15928 27.9485 6.90532 27.9688C6.72248 27.9857 6.53963 27.9959 6.35678 27.9959C5.88612 27.9959 5.41885 27.9417 4.95158 27.8367C1.56893 27.0647 -0.557499 23.6821 0.214517 20.2994C0.475241 19.1515 1.04409 18.1188 1.85336 17.2926C1.03394 16.48 0.451539 15.454 0.17727 14.3095C-0.638764 10.937 1.44026 7.52729 4.81614 6.71125C7.64686 6.02727 10.5047 7.38507 11.832 9.83656C12.1909 10.4968 11.7169 11.3027 10.9652 11.3027C10.5961 11.3027 10.2643 11.0894 10.0882 10.7643C9.17396 9.09163 7.22022 8.16724 5.28341 8.63452C2.96736 9.19321 1.54184 11.533 2.10054 13.849C2.36126 14.9292 3.01815 15.8569 3.94931 16.4596C4.22697 16.6391 4.39627 16.9506 4.39966 17.2824C4.39966 17.6041 4.24729 17.9021 3.98995 18.0883C3.54299 18.41 3.10619 18.7588 2.80145 19.2193C1.01023 21.9484 2.55765 25.2667 5.39515 25.9134C5.6728 25.9778 5.95384 26.0116 6.23489 26.0218C6.57349 26.032 6.90871 26.0015 7.24393 25.9338L8.19201 25.7035L9.0216 25.5037C9.45839 25.3988 9.78345 24.9992 9.74621 24.5523C9.72928 24.3593 9.65817 24.1832 9.53966 24.0444C9.45162 23.9394 9.33988 23.8547 9.21121 23.7972L9.60738 22.8931L10.0035 21.989C10.8331 22.3513 11.4324 23.0658 11.6424 23.9462L11.6458 23.9428Z" fill="url(#paint0_linear_4081_132)"/>
  <path d="M10.0035 21.9889L9.60729 22.893L9.21113 23.7971C9.08585 23.7429 8.88607 23.6887 8.64227 23.7463C8.40864 23.8038 8.21225 23.9461 8.08696 24.1526C7.96168 24.3592 7.92443 24.5996 7.982 24.8332L8.19193 25.7034L7.24384 25.9337C6.90863 26.0048 6.57341 26.0319 6.2348 26.0217L6.05873 25.2971C5.87927 24.5488 5.99778 23.7801 6.40072 23.1233C6.80027 22.4697 7.43007 22.0093 8.17839 21.8298C8.79465 21.6808 9.42445 21.735 10.0035 21.9889Z" fill="url(#paint1_linear_4081_132)"/>
  <path d="M22.9789 19.5982C22.7791 22.4154 20.6053 24.6299 17.9134 24.9888C18.0048 27.7044 16.1797 30.2101 13.4371 30.8771C12.9766 30.9889 12.5127 31.043 12.0488 31.043C10.9856 31.043 9.93929 30.7518 9.00813 30.183C8.11083 29.6378 7.39637 28.876 6.91217 27.9753C7.16612 27.955 7.42008 27.9177 7.67403 27.8635C7.68419 27.8635 7.69096 27.8602 7.70112 27.8568L8.98104 27.5486C9.26885 27.9211 9.62439 28.2462 10.0409 28.5001C10.9246 29.0385 11.9675 29.2044 12.9766 28.9606C15.0556 28.4561 16.3389 26.3568 15.8378 24.2743C15.7396 23.868 15.9055 23.4312 16.2847 23.1942C16.4709 23.0791 16.6978 23.0452 16.9179 23.0588C19.0342 23.1807 20.866 21.5791 21.015 19.4594C21.0658 18.7653 20.9304 18.0847 20.629 17.4752C20.4868 17.184 20.4766 16.842 20.6392 16.561C20.6425 16.5542 20.6459 16.5474 20.6493 16.5406C21.0285 15.8702 22.0037 15.8702 22.3525 16.5576C22.7453 17.333 23.0737 18.3725 22.9857 19.5982H22.9789Z" fill="url(#paint2_linear_4081_132)"/>
  <path d="M18.4958 1.24268C18.9089 1.65578 18.875 2.33298 18.4247 2.70545C17.2903 3.65015 16.0036 4.35783 14.6221 4.80818C13.9822 5.01811 13.3219 5.16709 12.6481 5.2619C12.1131 5.3364 11.5679 5.37703 11.016 5.37703C8.2801 5.37703 5.68978 4.4391 3.61414 2.71222C3.1638 2.33637 3.11978 1.65916 3.53626 1.24268C3.90195 0.87699 4.48096 0.863446 4.88051 1.19528C6.60401 2.62418 8.75075 3.40297 11.0194 3.40297C13.288 3.40297 15.4314 2.62418 17.1583 1.19528C17.5578 0.866832 18.1368 0.87699 18.5025 1.24268H18.4958Z" fill="url(#paint3_linear_4081_132)"/>
  <path d="M8.52724 12.5793C9.02498 12.5793 9.43131 12.9416 9.53289 13.4292C9.70219 14.2554 10.1187 15.0104 10.7451 15.6098C11.5306 16.3615 12.5498 16.7678 13.6334 16.7678C13.7011 16.7678 13.7654 16.7678 13.8332 16.7644C15.472 16.6899 16.884 15.6402 17.4968 14.1944C17.6086 13.9269 17.6966 13.6493 17.7508 13.3581C17.7847 13.1684 17.8084 12.9788 17.8185 12.7824C17.9133 10.7237 16.4675 8.87156 14.4562 8.47201C13.4065 8.26207 12.648 7.34446 12.648 6.28802V5.25866C13.3219 5.16385 13.9821 5.01148 14.6221 4.80493V6.28802C14.6221 6.40653 14.7101 6.50811 14.8388 6.5352C17.849 7.13452 19.9314 9.79933 19.7892 12.8739C19.7723 13.2226 19.7249 13.5612 19.6537 13.8897C19.5081 14.5466 19.2576 15.1662 18.919 15.7317C17.8828 17.4518 16.0307 18.6437 13.9212 18.7385C12.2519 18.8163 10.6638 18.2339 9.44485 17.103V20.4145H7.47079V13.5985C7.47079 13.033 7.92791 12.5759 8.49337 12.5793H8.52724Z" fill="#8C8DC4"/>
  <defs>
    <linearGradient id="paint0_linear_4081_132" x1="3.99333" y1="11.3196" x2="7.59946" y2="20.5974" gradientUnits="userSpaceOnUse">
      <stop offset="0.36" stop-color="#8C8DC4"/>
      <stop offset="0.92" stop-color="#D3A9C9"/>
    </linearGradient>
    <linearGradient id="paint1_linear_4081_132" x1="8.05649" y1="28.0973" x2="7.98877" y2="23.0115" gradientUnits="userSpaceOnUse">
      <stop offset="0.17" stop-color="#8C8DC4"/>
      <stop offset="0.82" stop-color="#D3A9C9"/>
    </linearGradient>
    <linearGradient id="paint2_linear_4081_132" x1="11.2226" y1="23.7292" x2="18.6549" y2="23.4786" gradientUnits="userSpaceOnUse">
      <stop stop-color="#8C8DC4"/>
      <stop offset="1" stop-color="#D3A9C9"/>
    </linearGradient>
    <linearGradient id="paint3_linear_4081_132" x1="3.24506" y1="3.16595" x2="18.7836" y2="3.16595" gradientUnits="userSpaceOnUse">
      <stop stop-color="#8C8DC4"/>
      <stop offset="1" stop-color="#D3A9C9"/>
    </linearGradient>
  </defs>
</svg>